<mxfile host="app.diagrams.net" modified="2021-08-31T11:41:57.759Z" agent="5.0 (X11)" etag="tnRn8UnSOyVS6vYGcUaa" version="15.0.3" type="github">
  <diagram id="e62hqZ1U8-yl1BPTolc8" name="Page-1">
    <mxGraphModel dx="1901" dy="440" grid="1" gridSize="10" guides="1" tooltips="1" connect="1" arrows="1" fold="1" page="1" pageScale="1" pageWidth="1100" pageHeight="850" math="0" shadow="0">
      <root>
        <mxCell id="0" />
        <mxCell id="1" parent="0" />
        <mxCell id="f_XeqD2XCdlRn0SwGh4A-67" value="" style="endArrow=none;html=1;" parent="1" edge="1">
          <mxGeometry width="50" height="50" relative="1" as="geometry">
            <mxPoint x="80" y="480" as="sourcePoint" />
            <mxPoint x="80" y="40" as="targetPoint" />
          </mxGeometry>
        </mxCell>
        <mxCell id="f_XeqD2XCdlRn0SwGh4A-68" value="" style="endArrow=classic;html=1;" parent="1" edge="1">
          <mxGeometry width="50" height="50" relative="1" as="geometry">
            <mxPoint x="80" y="140" as="sourcePoint" />
            <mxPoint x="280" y="160" as="targetPoint" />
          </mxGeometry>
        </mxCell>
        <mxCell id="f_XeqD2XCdlRn0SwGh4A-70" value="" style="endArrow=none;html=1;" parent="1" edge="1">
          <mxGeometry width="50" height="50" relative="1" as="geometry">
            <mxPoint x="360" y="480" as="sourcePoint" />
            <mxPoint x="360" y="40" as="targetPoint" />
          </mxGeometry>
        </mxCell>
        <mxCell id="f_XeqD2XCdlRn0SwGh4A-72" value="" style="endArrow=none;html=1;" parent="1" edge="1">
          <mxGeometry width="50" height="50" relative="1" as="geometry">
            <mxPoint x="279.5" y="480" as="sourcePoint" />
            <mxPoint x="279.5" y="45" as="targetPoint" />
          </mxGeometry>
        </mxCell>
        <mxCell id="f_XeqD2XCdlRn0SwGh4A-73" value="" style="endArrow=none;html=1;" parent="1" edge="1">
          <mxGeometry width="50" height="50" relative="1" as="geometry">
            <mxPoint x="440" y="480" as="sourcePoint" />
            <mxPoint x="440" y="40" as="targetPoint" />
          </mxGeometry>
        </mxCell>
        <mxCell id="f_XeqD2XCdlRn0SwGh4A-75" value="" style="endArrow=classic;html=1;" parent="1" edge="1">
          <mxGeometry width="50" height="50" relative="1" as="geometry">
            <mxPoint x="80" y="140" as="sourcePoint" />
            <mxPoint x="360" y="180" as="targetPoint" />
          </mxGeometry>
        </mxCell>
        <mxCell id="f_XeqD2XCdlRn0SwGh4A-76" value="" style="endArrow=classic;html=1;" parent="1" edge="1">
          <mxGeometry width="50" height="50" relative="1" as="geometry">
            <mxPoint x="80" y="140" as="sourcePoint" />
            <mxPoint x="440" y="197.5" as="targetPoint" />
          </mxGeometry>
        </mxCell>
        <mxCell id="f_XeqD2XCdlRn0SwGh4A-78" value="&lt;div align=&quot;left&quot;&gt;Send a proposal :&lt;/div&gt;&lt;div align=&quot;left&quot;&gt;&lt;br&gt;&lt;/div&gt;&lt;div align=&quot;left&quot;&gt;tx = &amp;lt;clientID, &lt;br&gt;&lt;/div&gt;&lt;div align=&quot;left&quot;&gt;&lt;span style=&quot;white-space: pre&quot;&gt; &lt;/span&gt;chaincodeID, &lt;br&gt;&lt;/div&gt;&lt;div align=&quot;left&quot;&gt;&lt;span style=&quot;white-space: pre&quot;&gt; &lt;/span&gt;t&lt;span style=&quot;white-space: pre&quot;&gt;&lt;/span&gt;xPayload, &lt;br&gt;&lt;/div&gt;&lt;div align=&quot;left&quot;&gt;&lt;span style=&quot;white-space: pre&quot;&gt; &lt;/span&gt;timestamp,&lt;/div&gt;&lt;div align=&quot;left&quot;&gt;&lt;span style=&quot;white-space: pre&quot;&gt; &lt;/span&gt;clientSig&amp;gt;&lt;br&gt;&lt;/div&gt;" style="text;html=1;align=left;verticalAlign=middle;resizable=0;points=[];autosize=1;strokeColor=none;" parent="1" vertex="1">
          <mxGeometry x="100" y="40" width="130" height="100" as="geometry" />
        </mxCell>
        <mxCell id="f_XeqD2XCdlRn0SwGh4A-80" value="&lt;div align=&quot;left&quot;&gt;Execute tx&lt;br&gt;Sign Transaction-Endorsed&lt;br&gt;&lt;/div&gt;" style="text;html=1;align=left;verticalAlign=middle;resizable=0;points=[];autosize=1;strokeColor=none;" parent="1" vertex="1">
          <mxGeometry x="470" y="207.5" width="180" height="30" as="geometry" />
        </mxCell>
        <mxCell id="f_XeqD2XCdlRn0SwGh4A-83" value="" style="shape=curlyBracket;whiteSpace=wrap;html=1;rounded=1;flipH=1;strokeWidth=1;verticalAlign=middle;fillColor=none;size=0.5;" parent="1" vertex="1">
          <mxGeometry x="450" y="197.5" width="20" height="40" as="geometry" />
        </mxCell>
        <mxCell id="f_XeqD2XCdlRn0SwGh4A-84" value="" style="shape=curlyBracket;whiteSpace=wrap;html=1;rounded=1;strokeWidth=1;verticalAlign=middle;fillColor=none;" parent="1" vertex="1">
          <mxGeometry x="80" y="45" width="20" height="90" as="geometry" />
        </mxCell>
        <mxCell id="f_XeqD2XCdlRn0SwGh4A-87" value="" style="endArrow=classic;html=1;" parent="1" edge="1">
          <mxGeometry width="50" height="50" relative="1" as="geometry">
            <mxPoint x="440" y="280" as="sourcePoint" />
            <mxPoint x="80" y="320" as="targetPoint" />
          </mxGeometry>
        </mxCell>
        <mxCell id="f_XeqD2XCdlRn0SwGh4A-88" value="" style="endArrow=classic;html=1;" parent="1" edge="1">
          <mxGeometry width="50" height="50" relative="1" as="geometry">
            <mxPoint x="280" y="240" as="sourcePoint" />
            <mxPoint x="80" y="280" as="targetPoint" />
          </mxGeometry>
        </mxCell>
        <mxCell id="f_XeqD2XCdlRn0SwGh4A-90" value="" style="endArrow=classic;html=1;" parent="1" edge="1">
          <mxGeometry width="50" height="50" relative="1" as="geometry">
            <mxPoint x="360" y="260" as="sourcePoint" />
            <mxPoint x="80" y="300" as="targetPoint" />
          </mxGeometry>
        </mxCell>
        <mxCell id="f_XeqD2XCdlRn0SwGh4A-91" value="Colect &lt;br&gt;Transaction-endorsed&lt;br&gt;messages into&lt;br&gt; a valid endorsement&lt;br&gt;that satisfies&lt;br&gt; endorsementPolicy&lt;br&gt;(chaincodeID)" style="text;html=1;align=center;verticalAlign=middle;resizable=0;points=[];autosize=1;strokeColor=none;" parent="1" vertex="1">
          <mxGeometry x="-70" y="250" width="150" height="100" as="geometry" />
        </mxCell>
        <mxCell id="f_XeqD2XCdlRn0SwGh4A-98" value="&lt;div&gt;Client App&lt;/div&gt;&lt;div&gt;&lt;br&gt;&lt;/div&gt;" style="text;html=1;align=center;verticalAlign=middle;resizable=0;points=[];autosize=1;strokeColor=none;" parent="1" vertex="1">
          <mxGeometry x="40" y="500" width="80" height="30" as="geometry" />
        </mxCell>
        <mxCell id="f_XeqD2XCdlRn0SwGh4A-99" value="&lt;div&gt;Endorsing &lt;br&gt;&lt;/div&gt;&lt;div&gt;Peer1&lt;/div&gt;" style="text;html=1;align=center;verticalAlign=middle;resizable=0;points=[];autosize=1;strokeColor=none;" parent="1" vertex="1">
          <mxGeometry x="240" y="490" width="80" height="30" as="geometry" />
        </mxCell>
        <mxCell id="f_XeqD2XCdlRn0SwGh4A-100" value="&lt;div&gt;Endorsing &lt;br&gt;&lt;/div&gt;&lt;div&gt;Peer2&lt;/div&gt;" style="text;html=1;align=center;verticalAlign=middle;resizable=0;points=[];autosize=1;strokeColor=none;" parent="1" vertex="1">
          <mxGeometry x="320" y="490" width="80" height="30" as="geometry" />
        </mxCell>
        <mxCell id="f_XeqD2XCdlRn0SwGh4A-101" value="&lt;div&gt;Endorsing &lt;br&gt;&lt;/div&gt;&lt;div&gt;Peer3&lt;/div&gt;" style="text;html=1;align=center;verticalAlign=middle;resizable=0;points=[];autosize=1;strokeColor=none;" parent="1" vertex="1">
          <mxGeometry x="410" y="490" width="80" height="30" as="geometry" />
        </mxCell>
        <mxCell id="f_XeqD2XCdlRn0SwGh4A-104" value="&lt;div&gt;Ordering&lt;/div&gt;&lt;div&gt;Service&lt;br&gt;&lt;/div&gt;" style="rounded=0;whiteSpace=wrap;html=1;strokeWidth=1;verticalAlign=middle;fillColor=#b1ddf0;strokeColor=#10739e;" parent="1" vertex="1">
          <mxGeometry x="680" y="40" width="80" height="440" as="geometry" />
        </mxCell>
        <mxCell id="f_XeqD2XCdlRn0SwGh4A-105" value="Orders" style="text;html=1;align=center;verticalAlign=middle;resizable=0;points=[];autosize=1;strokeColor=none;" parent="1" vertex="1">
          <mxGeometry x="690" y="500" width="60" height="20" as="geometry" />
        </mxCell>
        <mxCell id="f_XeqD2XCdlRn0SwGh4A-109" value="" style="endArrow=classic;html=1;entryX=0.013;entryY=0.777;entryDx=0;entryDy=0;entryPerimeter=0;" parent="1" target="f_XeqD2XCdlRn0SwGh4A-104" edge="1">
          <mxGeometry width="50" height="50" relative="1" as="geometry">
            <mxPoint x="280" y="350" as="sourcePoint" />
            <mxPoint x="678" y="260" as="targetPoint" />
          </mxGeometry>
        </mxCell>
        <mxCell id="f_XeqD2XCdlRn0SwGh4A-122" value="Verify Endorsement &lt;br&gt;Readset if OK Apply &lt;br&gt;&lt;div&gt;then Apply Writeset &lt;br&gt;&lt;/div&gt;&lt;div&gt;to state&lt;br&gt;&lt;/div&gt;" style="text;html=1;align=center;verticalAlign=middle;resizable=0;points=[];autosize=1;strokeColor=none;" parent="1" vertex="1">
          <mxGeometry x="460" y="420" width="140" height="60" as="geometry" />
        </mxCell>
        <mxCell id="f_XeqD2XCdlRn0SwGh4A-123" value="" style="endArrow=classic;html=1;dashed=1;" parent="1" edge="1">
          <mxGeometry width="50" height="50" relative="1" as="geometry">
            <mxPoint x="280" y="440" as="sourcePoint" />
            <mxPoint x="80" y="470" as="targetPoint" />
          </mxGeometry>
        </mxCell>
        <mxCell id="f_XeqD2XCdlRn0SwGh4A-126" value="" style="endArrow=none;html=1;entryX=-0.025;entryY=0.782;entryDx=0;entryDy=0;entryPerimeter=0;" parent="1" target="f_XeqD2XCdlRn0SwGh4A-104" edge="1">
          <mxGeometry width="50" height="50" relative="1" as="geometry">
            <mxPoint x="280" y="440" as="sourcePoint" />
            <mxPoint x="400" y="280" as="targetPoint" />
          </mxGeometry>
        </mxCell>
        <mxCell id="f_XeqD2XCdlRn0SwGh4A-128" value="" style="endArrow=classic;html=1;exitX=1;exitY=0.5;exitDx=0;exitDy=0;" parent="1" source="f_XeqD2XCdlRn0SwGh4A-104" edge="1">
          <mxGeometry width="50" height="50" relative="1" as="geometry">
            <mxPoint x="740" y="300" as="sourcePoint" />
            <mxPoint x="840" y="260" as="targetPoint" />
          </mxGeometry>
        </mxCell>
        <mxCell id="f_XeqD2XCdlRn0SwGh4A-129" value="" style="endArrow=none;html=1;" parent="1" edge="1">
          <mxGeometry width="50" height="50" relative="1" as="geometry">
            <mxPoint x="840" y="480" as="sourcePoint" />
            <mxPoint x="840" y="40" as="targetPoint" />
          </mxGeometry>
        </mxCell>
        <mxCell id="f_XeqD2XCdlRn0SwGh4A-130" value="&lt;div&gt;(Committing)&lt;/div&gt;&lt;div&gt;Peer&lt;br&gt;&lt;/div&gt;" style="text;html=1;align=center;verticalAlign=middle;resizable=0;points=[];autosize=1;strokeColor=none;" parent="1" vertex="1">
          <mxGeometry x="795" y="490" width="100" height="30" as="geometry" />
        </mxCell>
        <mxCell id="f_XeqD2XCdlRn0SwGh4A-132" value="1" style="ellipse;whiteSpace=wrap;html=1;aspect=fixed;strokeWidth=1;verticalAlign=middle;fillColor=#d0cee2;strokeColor=#56517e;" parent="1" vertex="1">
          <mxGeometry x="240" y="130" width="20" height="20" as="geometry" />
        </mxCell>
        <mxCell id="f_XeqD2XCdlRn0SwGh4A-133" value="2" style="ellipse;whiteSpace=wrap;html=1;aspect=fixed;strokeWidth=1;verticalAlign=middle;fillColor=#d0cee2;strokeColor=#56517e;" parent="1" vertex="1">
          <mxGeometry x="380" y="250" width="20" height="20" as="geometry" />
        </mxCell>
        <mxCell id="f_XeqD2XCdlRn0SwGh4A-136" value="3" style="ellipse;whiteSpace=wrap;html=1;aspect=fixed;strokeWidth=1;verticalAlign=middle;fillColor=#d0cee2;strokeColor=#56517e;" parent="1" vertex="1">
          <mxGeometry x="250" y="320" width="20" height="20" as="geometry" />
        </mxCell>
        <mxCell id="f_XeqD2XCdlRn0SwGh4A-137" value="3" style="ellipse;whiteSpace=wrap;html=1;aspect=fixed;strokeWidth=1;verticalAlign=middle;fillColor=#d0cee2;strokeColor=#56517e;" parent="1" vertex="1">
          <mxGeometry x="590" y="350" width="20" height="20" as="geometry" />
        </mxCell>
        <mxCell id="f_XeqD2XCdlRn0SwGh4A-138" value="4" style="ellipse;whiteSpace=wrap;html=1;aspect=fixed;strokeWidth=1;verticalAlign=middle;fillColor=#d0cee2;strokeColor=#56517e;" parent="1" vertex="1">
          <mxGeometry x="790" y="230" width="20" height="20" as="geometry" />
        </mxCell>
        <mxCell id="f_XeqD2XCdlRn0SwGh4A-139" value="4" style="ellipse;whiteSpace=wrap;html=1;aspect=fixed;strokeWidth=1;verticalAlign=middle;fillColor=#d0cee2;strokeColor=#56517e;" parent="1" vertex="1">
          <mxGeometry x="450" y="390" width="20" height="20" as="geometry" />
        </mxCell>
        <mxCell id="f_XeqD2XCdlRn0SwGh4A-140" value="" style="shape=curlyBracket;whiteSpace=wrap;html=1;rounded=1;strokeWidth=1;verticalAlign=middle;fillColor=none;" parent="1" vertex="1">
          <mxGeometry x="450" y="420" width="20" height="60" as="geometry" />
        </mxCell>
        <mxCell id="f_XeqD2XCdlRn0SwGh4A-143" value="" style="endArrow=classic;html=1;exitX=1.013;exitY=0.9;exitDx=0;exitDy=0;exitPerimeter=0;dashed=1;" parent="1" source="f_XeqD2XCdlRn0SwGh4A-91" edge="1">
          <mxGeometry width="50" height="50" relative="1" as="geometry">
            <mxPoint x="80" y="360" as="sourcePoint" />
            <mxPoint x="280" y="350" as="targetPoint" />
          </mxGeometry>
        </mxCell>
      </root>
    </mxGraphModel>
  </diagram>
</mxfile>
